<svg xmlns="http://www.w3.org/2000/svg" viewBox="0 0 512 512"><g id="_x31_2_Contract"><g><path d="m83.954 230.583c28.268-2.611 56.731-4.316 85.126-4.326 13.654-.005 27.298.163 40.937.848 14.545.731 29.715 3.639 44.234 2.193 3.851-.384 4.411-6.324.783-7.529-13.377-4.445-28.533-4.413-42.499-5.183-14.293-.787-28.645-1.227-42.959-.94-29.027.583-57.643 3.412-86.225 8.456-3.594.635-3.147 6.827.603 6.481z"></path><path d="m209.165 297.761c14.312-.113 27.813.434 41.52-4.235 5.265-1.794 4.241-8.601-.5-10.173-13.385-4.438-26.951-3.472-40.86-3.302-12.447.152-24.889.469-37.332.813-14.473.4-28.912.855-43.37 1.598-14.725.756-29.309 2.394-43.986 3.759-4.578.426-3.995 7.601.439 7.924 28.064 2.04 55.916 3.361 84.069 3.547 13.339.087 26.681.175 40.02.069z"></path><path d="m284.656 348.316c-2.4 2.379-6.564 3.665-9.411 5.628-1.536 1.059-2.972 2.244-4.553 3.245-3.723 2.357-7.829 4.403-11.933 6.015-3.284 1.289-6.869 2.457-10.513 3.138-.72-4.443-2.694-8.656-6.04-12.075-6.171-6.306-16.484-8.596-23.869-2.865-7.532 5.844-6.72 16.223-1.424 23.323 1.921 2.576 4.385 4.608 7.148 6.178-.679.7-1.367 1.379-2.04 2.038-5.72 5.606-12.439 11.628-19.82 14.953-8.816 3.972-16.432-3.76-21.833-9.87-5.666-6.41-14.662-18.787-24.398-16.75-7.262 1.519-11.834 11.051-15.388 16.811-3.523 5.707-7.659 13.994-15.052 15.127-8.301 1.271-15.875-5.796-16.782-13.629-.78-6.74-11.53-5.199-11.665 1.299-.36 17.366 17.461 31.38 34.247 26.382 7.413-2.207 12.972-7.604 17.446-13.695 2.162-2.944 4.022-6.077 5.924-9.19.94-1.539 2.08-3.973 3.457-5.968 2.721 2.706 4.832 6.151 7.149 9.136 3.517 4.529 7.293 8.868 11.743 12.509 7.53 6.161 17.184 9.486 26.84 7.253 9.559-2.211 18.229-9.429 25.439-15.703 5.438-4.733 10.78-10.056 14.552-16.284 8.031-.245 16.102-2.569 23.425-5.57 4.815-1.972 9.176-4.528 13.471-7.458 5.868-4.003 9.378-8.546 13.115-14.642 1.566-2.554 1.022-6.131-1.066-8.224-1.726-1.729-6.12-3.142-8.169-1.112z"></path><path d="m504.695 148.927c-3.004-3.596-5.326-7.966-8.239-11.653-2.959-3.778-5.918-7.556-8.877-11.334-5.508-7.056-10.743-15.659-17.48-21.577-14.248-12.472-29.315 7.465-38.601 16.615-28.222 27.676-56.627 55.17-84.394 83.302-1.001.956-1.957 2.003-2.913 2.959-.546-26.083-2.412-52.166-10.197-76.929-5.69-17.981-17.753-30.817-32.183-42.425-14.749-11.926-30.089-22.305-43.017-36.371-7.374-8.012-14.93-15.659-25.127-19.938-.91-.364-1.821-.501-2.686-.501-3.824-2.458-13.11-1.775-17.434-1.957-4.37-.228-8.74-.41-13.11-.683-8.33-.546-16.661-1.275-24.991-2.048-16.797-1.593-33.594-3.323-50.482-4.051-16.569-.683-33.366-.774-49.799 1.73-16.934 2.549-33.366 8.285-49.116 14.84-2.549 1.092-3.095 3.869-2.321 6.1-.091.41-.273.728-.273 1.138-7.01 95.137-11.608 190.411-14.385 285.73-.683 23.579-1.32 47.159-1.821 70.738-.228 12.382-.501 24.763-.728 37.145-.228 9.923-1.457 20.575.91 30.316 2.23 9.332 9.15 15.432 18.709 16.297 12.199 1.047 24.9-.41 37.145-.137 25.81.637 51.483 2.913 77.248 3.687 26.356.773 52.212-1.366 78.386-4.324 20.894-2.367 41.788-5.963 62.818-7.193 15.295-.865 31.227-1.184 46.066-5.371 5.417-1.503 11.38-3.733 15.113-8.194 2.822-3.368 3.824-8.057 4.506-12.29 4.324-27.403.865-56.309-.41-83.848-.683-14.385-.228-30.726-.364-47.114-.091-6.874-.273-13.792-.455-20.666 55.853-44.792 109.34-92.588 158.274-144.891 1.957-2.095 2.048-4.917.228-7.102zm-170.883 308.081c-.228.273-.683.773-.774.865-.956.683-1.957 1.275-3.004 1.775-2.777 1.275-5.781 2.049-8.74 2.731-7.283 1.684-14.749 2.458-22.214 3.05-14.976 1.229-29.77 2.094-44.655 4.051-25.765 3.414-51.756 7.192-77.703 8.648-24.627 1.366-49.298-.091-73.879-1.502-12.245-.683-24.49-1.548-36.78-2.003-12.382-.455-24.854.41-37.235-.136-11.289-.501-10.515-11.744-10.288-20.439.273-10.652.546-21.258.865-31.864.683-22.351 1.411-44.655 2.139-66.96 3.003-91.814 6.736-183.582 10.696-275.351.455-11.016 1.001-22.077 1.548-33.139 31.182-9.149 63.046-11.516 95.456-9.286 16.706 1.138 33.366 2.959 50.027 4.461 8.285.728 16.569 1.411 24.854 1.866 4.506.228 9.923.865 15.204.774-3.596 18.891-4.324 38.647-6.009 57.583-1.001 11.243-1.957 22.441-2.959 33.685-.728 8.467-3.869 20.12 1.138 27.768 4.415 6.782 12.837 7.92 20.302 7.738 11.016-.228 22.077-1.138 33.048-2.094 10.424-.956 20.757-2.185 31.045-3.778 10.242-1.548 21.121-2.686 30.999-5.963.41 2.822.774 5.599 1.092 8.376 2.14 17.616 2.64 35.415 2.913 53.168-9.65 10.151-19.164 20.393-28.769 30.589-1.821-.136-3.596.683-4.279 2.777-3.232 10.242-5.826 20.53-7.283 31.182-1.047 7.602-1.73 15.249-2.185 22.897-1.32.865-2.549 2.003-3.732 3.141-1.32 1.229-2.64 2.458-3.961 3.687-.956.865-1.912 1.73-2.868 2.595-1.093 1.047-2.048 2.276-3.004 3.46-2.276 2.777-2.003 6.782.41 9.332 2.321 2.504 6.509 3.186 9.286.956.865-.637 1.684-1.275 2.504-2.003.637-.546 1.275-1.275 1.866-1.957 1.821-1.957 3.642-3.869 5.462-5.781.592-.683 1.229-1.32 1.821-1.957.228-.273.455-.546.683-.774 5.872-1.684 11.699-3.551 17.571-5.326 4.233-1.274 9.332-2.185 13.519-4.324 1.548.819 3.369 1.138 5.189.774.319 13.246.637 26.493.774 39.739.273 26.265 2.913 52.439 2.868 78.705-.045 7.689 1.002 22.301-2.958 28.264zm-26.311-180.488c2.094 3.46 4.598 6.691 7.01 9.923 2.504 3.368 5.098 6.691 7.738 9.969.364.455.774.956 1.138 1.457-2.777.364-5.371 1.047-8.467 1.957-2.367.728-4.688 1.411-7.056 2.094-1.957.592-3.96 1.184-5.963 1.775.319-5.781.728-11.562 1.411-17.343.546-4.825 1.047-9.696 1.639-14.567.82 1.594 1.639 3.233 2.55 4.735zm27.904 13.702c-1.502-1.685-3.141-3.232-4.461-4.734-2.322-2.686-4.552-5.371-6.782-8.102-2.231-2.731-4.279-5.599-6.464-8.376-3.05-3.824-6.464-7.465-9.559-11.243-.091-.137-.228-.228-.364-.364 16.797-15.431 33.776-30.59 50.118-46.567 3.733-3.642 7.42-7.329 11.152-10.971 4.871 7.42 10.288 14.339 16.296 20.985 3.095 3.414 6.282 6.737 9.514 10.014 1.639 1.548 3.232 3.095 4.916 4.598.273.228.546.455.819.683-21.395 18.435-43.108 36.506-65.185 54.077zm126.5-141.614c-6.646 9.605-14.657 18.026-23.17 26.038-3.186 2.959-6.327 5.918-9.514 8.876-4.051 3.824-8.102 8.421-13.519 10.287-5.053 1.73-10.652-3.095-8.285-8.376 2.367-5.417 7.01-9.013 11.243-12.882 3.278-3.004 6.6-6.054 9.878-9.058 3.824-3.46 7.875-6.6 11.79-9.969 1.866-1.639 3.778-3.186 5.872-4.643.956-.683 7.738-5.599 8.512-5.371 0-.41 2.64-1.366 3.05-1.366 1.002-.046 1.912.273 2.731.819 1.64 1.093 2.642 3.87 1.412 5.645z"></path></g></g><g id="Layer_1"></g></svg>