<svg xmlns="http://www.w3.org/2000/svg" id="Layer_1" height="512" viewBox="0 0 68 68" width="512"><g id="_x34_4"><path d="m60.4006805 29.2305565c-4.5895042-.1475658-12.4915657 4.0166168-18.2757568 5.0562134.1576538-.6245728.1798706-1.3608398.2507324-1.9029541.6621857-5.0633373 1.7707481-11.2405186-.1439819-15.6864624-.4633179-1.0759277-1.8286133-3.0473633-3.3129272-3.0275879-.395874-.1430664-.7993164-.2359009-1.1899414-.2287598-1.2363281.0400391-2.4599609.8725586-3.1923828 2.1733398-1.7385139 3.0831413-.3894005 7.6573696-11.0029507 20.1669922-.7142143.8406372-1.3346977 1.7451782-1.8975029 2.6447144-.4724712-2.4369125-2.9205322-2.9008255-4.7435303-1.7089233-1.6073427-.3480453-5.1642523-.3906403-8.0315542.2936401.2372293-.7271118-.6011162-1.2762566-1.170166-.8139038-2.8388672 2.2861328-4.1826172 7.4980469-4.3886719 9.6630859-.5654297 5.9521484.5986328 11.3535156 3.6640627 16.9980469.4543352.8367615 1.8295469.2238083 1.2750854-.8024902 3.6252956.4229736 7.3669395-.2753601 10.2021475-1.5826416.6810303-.0122681 1.3337402-.1896362 1.8843994-.527771 1.2770996 1.2362061 4.3137207 2.5133667 5.6482544 3.1237183 3.7119141 1.6978722 7.3973408 2.5703087 11.4553852 3.0972862 6.62146.8598633 14.2470093-.9596558 19.4143677-5.0197105 1.1464233-.9007568 2.2611694-2.4446411 2.8789063-3.7647705.4052124-.8657837.4869385-1.5310669.3588867-2.2727051.0934868-1.401413-.9185333-2.5394821-2.1292114-3.2711182 1.3819809-.4218178 2.5929527-1.5913696 3.5645142-2.2327271 2.9230347-1.9258842 3.1596909-5.215313 1.2814331-6.9242554.65625-.5437622 1.1658325-1.2510986 1.4666138-2.1450806.4534912-1.3504028.0244141-3.3012695-1.1677856-4.3563232 2.9694668-2.2466163 1.1633145-6.8127174-2.6984257-6.9488525zm-52.9277353 31.2114258c-.015564-.0026855-.0303345.0029297-.0458984.0012817-4.1186962-8.6075058-3.194212-16.811657-.2645264-21.3703003.0698853-.0067139.1401978-.0131226.2088623-.0401611 2.6003418-1.0432129 5.7525635-1.1998901 8.1782227-.9765625-1.1502218 1.6218529-3.3265705 6.5521736-3.7250977 10.5507813-.5579386 5.5937309 1.8265476 9.7523613 4.2042837 11.1891479-2.3654775.7590942-5.4571523 1.2092895-8.5558462.645813zm54.3193369-23.3613282c.8535156.4306641 1.3945313 1.9609375 1.0527344 2.9765625-.3671875 1.0927734-1.0683594 1.7773438-2.1425781 2.0917969-1.3547401.3982124-3.473362.7132874-7.6884766 1.7001953-.4033203.0947266-.6542969.4980469-.5595703.9013672.0962563.4105492.508049.6529007.9013672.5595703 5.0876083-1.1960945 6.2200851-1.2082634 7.9835815-1.8123169.7633667.3353882 1.276001 1.3319702 1.1502075 2.2869263-.1279297.9638672-.7832031 1.8994141-1.796875 2.5683594-.3261719.2148438-.6650391.4726563-1.0136719.7392578-1.9278755 1.4703712-1.7302513 1.1538391-3.8173828 1.7939453-.8369141.2558594-1.7021484.5205078-2.6210938.6513672-.4101563.0576172-.6953125.4375-.6367188.8476563.0598412.424427.4616737.6993103.8476563.6367188.7896729-.1118774 1.519165-.3121338 2.2077026-.5153198.0793457.0459595.166748.0809326.2630005.0953979 1.0844383.1639938 3.2053566 1.5693855 2.5478516 2.8671875-1.2509766 2.46875-4.7324219 4.3037109-10.1035156 5.3125-4.5244141.8486328-5.2197266.9775391-9.3876953.6279297-7.8808613-.6630859-13.8203335-2.7148438-18.1562519-6.2734375-.6942539-.5668678-1.6413517.3550034-1.0313721 1.0619507.1380787.3602562.5055428.4084435.5020752 1.1294556-.006443 1.4176788-1.5953846 1.978199-2.9384766 1.4580078-.8027344-.3105469-1.55371-.9677734-2.2314444-1.9511719-1.4716797-2.1357422-2.1132813-5.0048828-1.8066406-8.0791016.2451172-2.4589844 1.0664063-5.0908203 2.5859375-8.2822266.3730459-.7861328.7890615-1.6005859 1.390624-2.1738281.4599609-.4384766 1.2109375-.8398438 1.9277344-.6748047 1.4499607.3406868.8924522 2.3246422.93927 3.3977051-.1365967.2644043-.2828369.539917-.4060669.7868652-.2512951.502594.120142 1.0849609.6699219 1.0849609.2753906 0 .5410156-.1523438.671875-.4150391.8505859-1.7060547 2.0263672-3.8984375 3.5800781-5.7270508 10.7387409-12.6461487 9.7033672-17.8061123 11.1669941-20.4013672 1.1880569-2.1077929 3.5591393-2.0458851 4.6113281 1.4526367 1.3535156 4.4926758-.3564453 11.6181641-1.9970703 17.3242188-.0654297.2265625-.0195313.4711914.1220703.6591797.1425781.1884766.3271484.3110352.6015625.2978516 7.3101997-.0292015 15.8107109-5.5064049 21.1669922-5.3549805 1.8148613.0636635 3.3656578 1.7945709 2.4560547 3.5859375-.2636719.519043-.9951172 1.0283203-2.0078125 1.3969727-2.8425179 1.0339394-4.2765427.9128342-7.3173828 1.2978516-.4111328.0522461-.7011719.4277344-.6494141.8388672.0527344.4111328.4257813.7011719.8388672.6494141 2.6746597-.3391914 5.0938835-.3147049 7.9993286-1.5163574.0411379.0335082.0754396.0734252.124695.0983885z"></path><path d="m9.8430624 41.5620995c-1.2472916-.6660309-2.745997.6983261-1.9775391 1.4921875.0299072.7297401.6331568 1.233696 1.3378906 1.2412109h.015625c1.5869151 0 1.8802329-2.0675736.6240235-2.7333984z"></path><path d="m56.2143402 7.3575706c-.3395309-.0810595-.6403465.0694818-.7990112.312439l-3.1269531 4.7773438-5.7099609.1318359c-.6195335.0148516-.9559708.7355871-.5673828 1.2197266l3.5771484 4.4516602-1.6386719 5.4702148c-.1766586.5888519.3991394 1.1387482.9853516.9165039l5.3388672-2.0263672c5.1789742 3.5219688 4.7829361 3.5139046 5.3570557 3.3217773.0015259.0219727.0014648.0427246.0031128.0647583.8949547-.4260368 1.5750504-1.0141964 1.5540161-1.9508057l-.0872192-3.890686c1.0247803-.8440552 2.0957642-1.699646 3.1728516-2.406189.6983414-.4580822.5624847-1.0965538.5302124-1.9086304-.0099487-.2498169-.1326904-.5372314-.1437378-.7869873-.0137939.0139771-.02771.0278931-.0415039.0418701-.2688904-.5133362-.5227661-.3070869-4.5960693-1.4990845-1.8395844-4.6859283-1.5870476-4.8202562-2.0125732-5.2070313-.5245972-.4768066-1.1464844-.8433228-1.8257446-1.1034546.0110471.023926.0192868.0472414.0302121.0711061zm2.430481 11.1913453c-.1962891.1494141-.3056641.3862305-.2939453.6328125l.2226563 4.5800781c-3.9174385-2.6544819-3.9022369-2.9047604-4.4638672-2.6933594l-4.2871094 1.6274414 1.3164063-4.3925781c.0703125-.2363281.0205078-.4926758-.1337891-.6850586l-2.8730469-3.5742188 4.5849609-.105957c.2460938-.0058594.4746094-.1328125.6103516-.3393555l2.5107422-3.8359375 1.5175781 4.3266602c.0820313.2329102.2734375.4111328.5107422.4755859l4.4248047 1.203125z"></path><path d="m28.9133739 7.2935448c-.3154297.2680664-.3544922.7412109-.0869141 1.0571289l3.5185566 4.1508789c.2640953.3118773.7355804.3583574 1.0576172.0874023.3154297-.2680664.3544922-.7412109.0869141-1.0571289l-3.5185566-4.1508789c-.2675781-.3164062-.7402343-.3544922-1.0576172-.0874023z"></path><path d="m37.0471649 1.6250876c-.4140625.0063477-.7451172.3466797-.7392578.7612303l.1113281 7.5395508c.0058594.4101563.3408203.7387695.75.7387695h.0107422c.4140625-.0063477.7451172-.3466797.7392578-.7612305l-.1113281-7.5395507c-.0058594-.4140623-.3398437-.7148436-.7607422-.7387694z"></path><path d="m44.9495087 3.3448141c-.9814453 1.5532229-1.7890625 3.2177737-2.4033203 4.9472656-.1729012.4870405.1876945 1.0009766.7070313 1.0009766 1.043335 0 .4763565-1.2064857 2.9638672-5.1474609.2216797-.3500979.1171875-.8134768-.2333984-1.0346682-.3505861-.220703-.8125001-.1162108-1.0341798.2338869z"></path></g></svg>