<svg xmlns="http://www.w3.org/2000/svg" id="Layer_1_4_" viewBox="0 0 48 48"><path d="m13.996 35.95c2.52.072 3.659-3.463 1.541-4.678.017-.596-1.333-1.039-1.875-1.003-3.732.193-3.288 5.708.334 5.681zm.861-4.147c.033.011.08-.001.122-.003-.012.063-.014.123.01.173.667 1.433-.594 2.644-1.655 1.727-.987-.976.145-2.479 1.523-1.897zm21.303 3.227c2.424-2.593-1.134-6.379-3.706-4.027-.163.147-.124.342-.009.507-.679-.314-1.203 1.241-1.139 1.836.061 2.419 3.278 3.475 4.854 1.684zm-3.454-3.28c.119.068.243.102.334.064 1.306-.543 2.588.838 1.665 1.845-.907.963-2.448-.222-1.893-1.512.031-.096-.01-.244-.106-.397zm15.191-27.667c.005-.604-.53-1.05-1.119-1.001-.004.005-45.807-.123-45.808-.116-.474.002-.857.389-.854.863.064 12 .168 24 .33 36 .029 2.153.197 3.979.424 4.305.041.06.082.051.122.011.045.143 1.313.307 4.235.494 13.926.15 27.852.22 41.778.242.495.001.898-.401.897-.897-.001 0-.005-39.901-.005-39.901zm-46.062.617c5.679.048 37.983.324 44.067.375l.013 2.448c-14.7-.515-29.416-1.038-44.104-.092.007-.91.017-1.821.024-2.731zm9.891 38.82c.257-.489.33-.989.22-1.485.707-.001 1.413-.002 2.12-.004-.117.478-.064.96.164 1.435-.86.017-1.695.035-2.504.054zm24.157-14.734c1.1.325 2.078 1.284 2.387 2.464.193.669.113 1.686.166 2.593 0 0 .084 2.768.084 2.768.004.358.051.639.117.862-3.039-.101-6.077-.179-9.116-.243.085-1.125.323-2.009.068-3.207-.424-1.55-2.044-2.055-3.479-1.956-4.204-.147-9.156-1.161-7.591 4.995-3.033-.03-6.065-.053-9.098-.067.046-.155.181-2.851.201-3.086.066-.693-.006-1.953.167-2.569.39-1.62 2.022-2.44 3.567-2.435 7.51.463 15.023.48 22.527-.119zm-21.64-1.26c.446-1.041 1.119-2.612 1.119-2.612 1.013-2.712 2.183-3.348 4.97-3.114 2.327.038 6.179.089 8.498.082 2.046-.219 3.29 1.161 3.926 3.028 0 0 1.203 2.613 1.203 2.613-6.572-.382-13.147-.421-19.716.003zm14.196 9.683c-2.937-.058-5.875-.103-8.812-.135.154-1.137-.233-2.955 1.214-3.203 1.533.009 3.686.173 5.249.136.64-.006 1.632-.186 1.942.572.223.727.267 1.792.407 2.63zm11.024 1.421c.055.66.141 1.811.365 2.319-3.152-.805-25.785-.822-30.831-.874l.003-1.089c10.153.007 20.308-.055 30.463-.356zm-23.673 4.806c.224-.466.285-.94.178-1.411 5.376-.026 10.751-.091 16.127-.212-.155.469-.143.943.033 1.409-5.236.05-11.11.117-16.338.214zm20.327-.249c-.719.006-1.458.013-2.217.019.163-.479.149-.963-.033-1.44.756-.019 1.513-.038 2.269-.06-.189.493-.195.99-.019 1.481zm1.792-.015c.162-.503.127-1.011-.09-1.509.69.033 1.968-.252 2.2-.37.335.389.555-.534.534-1.672l-.035-1.555c-.019-.615-.698-.57-1.151-.571.217-.493.242-3.048.301-3.639.286-2.271-.001-4.687-2.152-6.114.131-.068.269-.138.392-.242.326-.274.088-.968 0-1-.835-.621-1.714-.688-2.561-.192-1.213-3.129-2.386-6.642-6.513-6.392-.592.001-3.982-.05-4.65-.059-7.092-.057-8.83-1.014-11.386 6.571-.887-.594-1.831-.591-2.698.083-.42.327-.087.968 0 1 .214.158.43.276.648.361-3.385 1.801-2.252 5.895-2.248 9.118-.693-.099-1.507.181-1.499.997 0 0 .006 3.061.006 3.061.113 1.505 2.022.865 3.031.99-.122.506-.058 1.017.207 1.519-1.907.05-3.612.105-5.027.167.72-8.564.367-17.608.591-26.251 12.085.724 24.193.827 36.282.127.167 8.48.024 17.076.524 25.535-1.344.01-2.935.022-4.706.037zm-32.091-26.658c.009-1.202.026-2.403.033-3.605 9.434.051 26.755.042 36.192-.018.009 1.24.028 2.48.039 3.72-12.083-.68-24.182-.833-36.264-.097zm37.506 26.615c.546-10.339.416-20.809.575-31.176.004-.516-.417-.937-.933-.933-9.481-.061-28.559-.047-38.04.017-.517-.004-.939.417-.934.934.254 10.504-.106 21.345.724 31.775-2.139.101-3.489.218-3.696.355.214-.338.393-2.024.427-4.272.161-10.494.271-20.988.355-31.483 14.7.605 29.422 1.018 44.118.159l.183 34.598c-.641.008-1.588.016-2.779.026zm-21.228-27.663c-.412-.245-.141-.919.001-1 1.258-.686 2.556-.657 3.809.029.386.257.141.919-.001 1-1.259.686-2.557.658-3.809-.029z"></path></svg>