<svg xmlns="http://www.w3.org/2000/svg" width="881" height="130" viewBox="0 0 881 130" fill="none"><path fill-rule="evenodd" clip-rule="evenodd" d="M67.952 0L83.993 49.37H135.904L93.907 79.882L109.949 129.252L67.952 98.74L25.955 129.252L41.996 79.882L0 49.37H51.9109L67.952 0Z" fill="#FFD800"></path><path fill-rule="evenodd" clip-rule="evenodd" d="M254.766 0L270.807 49.37H322.718L280.721 79.882L296.763 129.252L254.766 98.74L212.769 129.252L228.81 79.882L186.814 49.37H238.725L254.766 0Z" fill="#FFD800"></path><path fill-rule="evenodd" clip-rule="evenodd" d="M440.719 0L456.76 49.37H508.671L466.674 79.882L482.716 129.252L440.719 98.74L398.722 129.252L414.763 79.882L372.767 49.37H424.678L440.719 0Z" fill="#FFD800"></path><path fill-rule="evenodd" clip-rule="evenodd" d="M626.656 0L642.697 49.37H694.608L652.611 79.882L668.653 129.252L626.656 98.74L584.659 129.252L600.7 79.882L558.704 49.37H610.615L626.656 0Z" fill="#FFD800"></path><path fill-rule="evenodd" clip-rule="evenodd" d="M812.533 0L828.574 49.37H880.485L838.488 79.882L854.53 129.252L812.533 98.74L770.536 129.252L786.577 79.882L744.581 49.37H796.492L812.533 0Z" fill="#FFD800"></path></svg>