<svg xmlns="http://www.w3.org/2000/svg" width="700" height="192" viewBox="0 0 700 192" fill="none"><path d="M2.88876 191.849C1.29317 191.849 0 190.554 0 188.957V105.159C0 103.562 1.29317 102.268 2.88876 102.268H33.5803C34.9047 102.268 36.0571 103.167 36.3856 104.45L45.7922 141.597C46.5327 144.51 50.6728 144.505 51.4028 141.59L60.7104 104.457C61.0337 103.17 62.1861 102.268 63.5157 102.268H94.1968C95.7976 102.268 97.0907 103.562 97.0907 105.159V188.957C97.0907 190.554 95.7976 191.849 94.1968 191.849H71.2642C69.6634 191.849 68.3702 190.554 68.3702 188.957V162.335C68.3702 158.97 63.5939 158.318 62.6918 161.561L54.8651 189.732C54.5158 190.983 53.3738 191.849 52.0755 191.849H45.0101C43.7117 191.849 42.575 190.983 42.2256 189.732L34.3937 161.561C33.4968 158.318 28.7205 158.97 28.7205 162.335V188.957C28.7205 190.554 27.4222 191.849 25.8266 191.849H2.88876Z" fill="#F0F0EC"></path><path d="M105.691 191.209C103.866 191.209 102.495 189.536 102.854 187.745L119.738 103.948C120.01 102.598 121.199 101.627 122.575 101.627H157.495C158.872 101.627 160.056 102.598 160.327 103.948L177.211 187.745C177.571 189.536 176.204 191.209 174.374 191.209H151.572C150.133 191.209 148.907 190.145 148.709 188.717L147.692 181.448C147.494 180.02 146.274 178.957 144.83 178.957H135.001C133.546 178.957 132.321 180.036 132.133 181.479L131.205 188.687C131.017 190.129 129.792 191.209 128.337 191.209H105.691ZM135.527 155.266C135.298 156.998 136.649 158.538 138.395 158.538H141.42C143.166 158.538 144.512 157.005 144.287 155.276L142.796 143.706C142.363 140.35 137.509 140.341 137.06 143.696L135.527 155.266Z" fill="#F0F0EC"></path><path d="M186.139 191.209C184.543 191.209 183.25 189.914 183.25 188.317V104.519C183.25 102.922 184.543 101.627 186.139 101.627H231.201C245.561 101.627 254.389 110.19 254.389 124.022V134.298C254.389 143.048 250.968 148.98 244.826 152.36C243.356 153.17 242.615 154.959 243.329 156.48L257.721 187.086C258.618 189.004 257.22 191.209 255.103 191.209H232.442C231.29 191.209 230.247 190.524 229.788 189.466L216.695 159.233C216.304 158.331 215.417 157.747 214.432 157.747C213.071 157.747 211.965 158.851 211.965 160.212V188.317C211.965 189.914 210.672 191.209 209.077 191.209H186.139ZM211.965 135.095C211.965 136.692 213.264 137.986 214.859 137.986H220.663C224.219 137.986 226.461 135.879 226.461 132.585V127.974C226.461 124.681 224.219 122.573 220.663 122.573H214.859C213.264 122.573 211.965 123.868 211.965 125.465V135.095Z" fill="#F0F0EC"></path><path d="M266.859 191.209C265.263 191.209 263.965 189.914 263.965 188.317V104.519C263.965 102.922 265.263 101.627 266.859 101.627H289.797C291.392 101.627 292.685 102.922 292.685 104.519V117.733C292.685 120.393 295.97 121.642 297.738 119.655L312.901 102.597C313.449 101.98 314.236 101.627 315.065 101.627H339.114C341.643 101.627 342.951 104.646 341.226 106.494L320.54 128.613C319.711 129.496 319.524 130.8 320.066 131.882L347.634 187.024C348.599 188.946 347.201 191.209 345.048 191.209H320.467C319.351 191.209 318.335 190.565 317.855 189.555L301.383 154.791C300.502 152.933 298.02 152.562 296.633 154.08L293.441 157.578C292.957 158.111 292.685 158.806 292.685 159.527V188.317C292.685 189.914 291.392 191.209 289.797 191.209H266.859Z" fill="#F0F0EC"></path><path d="M354.687 191.209C353.086 191.209 351.793 189.914 351.793 188.317V104.519C351.793 102.922 353.086 101.627 354.687 101.627H413.849C415.444 101.627 416.737 102.922 416.737 104.519V121.394C416.737 122.991 415.444 124.286 413.849 124.286H383.402C381.807 124.286 380.513 125.581 380.513 127.178V132.196C380.513 133.794 381.807 135.088 383.402 135.088H413.849C415.444 135.088 416.737 136.383 416.737 137.98V154.197C416.737 155.794 415.444 157.089 413.849 157.089H383.402C381.807 157.089 380.513 158.383 380.513 159.98V165.658C380.513 167.255 381.807 168.55 383.402 168.55H413.849C415.444 168.55 416.737 169.844 416.737 171.442V188.317C416.737 189.914 415.444 191.209 413.849 191.209H354.687Z" fill="#F0F0EC"></path><path d="M449.545 191.209C447.95 191.209 446.651 189.914 446.651 188.317V127.441C446.651 125.844 445.358 124.549 443.763 124.549H425.997C424.402 124.549 423.104 123.254 423.104 121.657V104.519C423.104 102.922 424.402 101.627 425.997 101.627H495.895C497.491 101.627 498.784 102.922 498.784 104.519V121.657C498.784 123.254 497.491 124.549 495.895 124.549H478.261C476.665 124.549 475.372 125.844 475.372 127.441V188.317C475.372 189.914 474.079 191.209 472.478 191.209H449.545Z" fill="#F0F0EC"></path><path d="M507.181 191.209C505.585 191.209 504.287 189.914 504.287 188.317V104.519C504.287 102.922 505.585 101.627 507.181 101.627H530.114C531.714 101.627 533.008 102.922 533.008 104.519V188.317C533.008 189.914 531.714 191.209 530.114 191.209H507.181Z" fill="#F0F0EC"></path><path d="M544.345 191.209C542.744 191.209 541.451 189.914 541.451 188.317V104.519C541.451 102.922 542.744 101.627 544.345 101.627H568.253C569.416 101.627 570.464 102.322 570.917 103.391L583.192 132.377C584.417 135.279 588.745 134.401 588.745 131.249V104.519C588.745 102.922 590.038 101.627 591.639 101.627H614.441C616.037 101.627 617.33 102.922 617.33 104.519V188.317C617.33 189.914 616.037 191.209 614.441 191.209H590.638C589.491 191.209 588.448 190.528 587.989 189.474L575.715 161.353C574.458 158.481 570.172 159.376 570.172 162.51V188.317C570.172 189.914 568.873 191.209 567.278 191.209H544.345Z" fill="#F0F0EC"></path><path d="M653.762 191.734C635.846 191.734 625.172 180.668 625.172 162.884V129.949C625.172 112.296 635.846 101.23 653.762 101.23H671.413C689.465 101.23 700.003 112.296 700.003 129.949V131.141C700.003 132.739 698.704 134.033 697.109 134.033H674.176C672.575 134.033 671.282 132.739 671.282 131.141V130.608C671.282 126.392 668.779 124.153 664.696 124.153H660.478C656.395 124.153 653.892 126.392 653.892 130.608V162.356C653.892 166.44 656.395 168.812 660.478 168.812H665.484C669.572 168.812 671.679 167.363 671.679 163.411V163.009C671.679 161.412 670.385 160.117 668.785 160.117H665.218C663.617 160.117 662.324 158.823 662.324 157.226V143.512C662.324 141.915 663.617 140.62 665.218 140.62H697.109C698.704 140.62 700.003 141.915 700.003 143.512V163.542C700.003 181.327 689.465 191.734 671.413 191.734H653.762Z" fill="#F0F0EC"></path><path d="M2.88876 89.9781C1.29317 89.9781 0 88.6834 0 87.0863V3.28835C0 1.6912 1.29317 0.396484 2.88876 0.396484H33.5803C34.9047 0.396484 36.0571 1.29523 36.3856 2.57837L45.7922 39.7257C46.5327 42.6386 50.6728 42.6335 51.4028 39.7189L60.7104 2.58525C61.0337 1.29872 62.1861 0.396484 63.5157 0.396484H94.1968C95.7976 0.396484 97.0907 1.69125 97.0907 3.28835V87.0863C97.0907 88.6834 95.7976 89.9781 94.1968 89.9781H71.2642C69.6634 89.9781 68.3702 88.6834 68.3702 87.0863V60.464C68.3702 57.0982 63.5939 56.4469 62.6918 59.6897L54.8651 87.8606C54.5158 89.112 53.3738 89.9781 52.0755 89.9781H45.0101C43.7117 89.9781 42.575 89.112 42.2256 87.8606L34.3937 59.6897C33.4968 56.4469 28.7205 57.0982 28.7205 60.464V87.0863C28.7205 88.6834 27.4222 89.9781 25.8266 89.9781H2.88876Z" fill="#F0F0EC"></path><path d="M106.724 89.9781C105.128 89.9781 103.83 88.6834 103.83 87.0863V3.28835C103.83 1.6912 105.128 0.396484 106.724 0.396484H165.886C167.487 0.396484 168.78 1.6912 168.78 3.28835V20.1635C168.78 21.7606 167.487 23.0553 165.886 23.0553H135.445C133.844 23.0553 132.551 24.3501 132.551 25.9472V30.966C132.551 32.5631 133.844 33.8578 135.445 33.8578H165.886C167.487 33.8578 168.78 35.1525 168.78 36.7497V52.9663C168.78 54.5635 167.487 55.8582 165.886 55.8582H135.445C133.844 55.8582 132.551 57.1529 132.551 58.7501V64.4274C132.551 66.0246 133.844 67.3193 135.445 67.3193H165.886C167.487 67.3193 168.78 68.614 168.78 70.2111V87.0863C168.78 88.6834 167.487 89.9781 165.886 89.9781H106.724Z" fill="#F0F0EC"></path><path d="M203.667 90.3721C185.751 90.3721 174.816 79.3057 174.816 61.9165V28.4553C174.816 11.0659 185.751 0 203.667 0H221.448C239.365 0 250.299 11.0659 250.299 28.4553V35.5755C250.299 37.1726 249.006 38.4673 247.41 38.4673H224.342C222.746 38.4673 221.448 37.1726 221.448 35.5755V29.114C221.448 25.1618 218.945 22.9223 214.732 22.9223H210.383C206.17 22.9223 203.667 25.1618 203.667 29.114V61.2579C203.667 65.2098 206.17 67.4494 210.383 67.4494H214.732C218.945 67.4494 221.448 65.2098 221.448 61.2579V52.952C221.448 51.3549 222.746 50.0601 224.342 50.0601H247.41C249.006 50.0601 250.299 51.3549 250.299 52.952V61.9165C250.299 79.3057 239.365 90.3721 221.448 90.3721H203.667Z" fill="#F0F0EC"></path><path d="M258.199 89.9781C256.598 89.9781 255.305 88.6834 255.305 87.0863V3.28835C255.305 1.6912 256.598 0.396484 258.199 0.396484H281.131C282.727 0.396484 284.025 1.6912 284.025 3.28835V30.1756C284.025 31.7727 285.318 33.0674 286.914 33.0674H303.793C305.388 33.0674 306.681 31.7727 306.681 30.1756V3.28835C306.681 1.69125 307.975 0.396484 309.575 0.396484H332.508C334.104 0.396484 335.402 1.69125 335.402 3.28835V87.0863C335.402 88.6834 334.104 89.9781 332.508 89.9781H309.575C307.975 89.9781 306.681 88.6834 306.681 87.0863V58.8815C306.681 57.2843 305.388 55.9896 303.793 55.9896H286.914C285.318 55.9896 284.025 57.2843 284.025 58.8815V87.0863C284.025 88.6834 282.727 89.9781 281.131 89.9781H258.199Z" fill="#F0F0EC"></path><path d="M343.281 89.9781C341.456 89.9781 340.085 88.3054 340.444 86.5148L357.328 2.71722C357.599 1.36739 358.788 0.396484 360.165 0.396484H395.08C396.457 0.396484 397.645 1.36739 397.917 2.71722L414.801 86.5148C415.16 88.3054 413.789 89.9781 411.964 89.9781H389.162C387.717 89.9781 386.497 88.9149 386.299 87.4867L385.282 80.218C385.084 78.7892 383.859 77.7266 382.42 77.7266H372.591C371.136 77.7266 369.905 78.8059 369.723 80.2482L368.789 87.456C368.607 88.8983 367.376 89.9781 365.922 89.9781H343.281ZM373.117 54.0353C372.888 55.768 374.233 57.3073 375.98 57.3073H379.009C380.756 57.3073 382.102 55.7748 381.877 54.0452L380.386 42.4754C379.953 39.119 375.094 39.1104 374.65 42.4653L373.117 54.0353Z" fill="#F0F0EC"></path><path d="M422.181 89.9781C420.58 89.9781 419.287 88.6834 419.287 87.0863V3.28835C419.287 1.6912 420.58 0.396484 422.181 0.396484H446.089C447.252 0.396484 448.3 1.09129 448.753 2.1608L461.028 31.1463C462.253 34.0486 466.581 33.1705 466.581 30.0188V3.28835C466.581 1.6912 467.874 0.396484 469.475 0.396484H492.277C493.873 0.396484 495.166 1.69125 495.166 3.28835V87.0863C495.166 88.6834 493.873 89.9781 492.277 89.9781H468.474C467.321 89.9781 466.284 89.2966 465.825 88.2433L453.55 60.1225C452.294 57.2504 448.008 58.1457 448.008 61.2795V87.0863C448.008 88.6834 446.709 89.9781 445.114 89.9781H422.181Z" fill="#F0F0EC"></path><path d="M506.998 89.9781C505.403 89.9781 504.109 88.6834 504.109 87.0863V3.28835C504.109 1.6912 505.403 0.396484 506.998 0.396484H529.936C531.532 0.396484 532.825 1.69125 532.825 3.28835V87.0863C532.825 88.6834 531.532 89.9781 529.936 89.9781H506.998Z" fill="#F0F0EC"></path><path d="M568.96 90.3721C551.044 90.3721 540.109 79.3057 540.109 61.9165V28.4553C540.109 11.0659 551.044 0 568.96 0H586.741C604.657 0 615.592 11.0659 615.592 28.4553V35.5755C615.592 37.1726 614.299 38.4673 612.703 38.4673H589.635C588.039 38.4673 586.741 37.1726 586.741 35.5755V29.114C586.741 25.1618 584.238 22.9223 580.025 22.9223H575.676C571.463 22.9223 568.96 25.1618 568.96 29.114V61.2579C568.96 65.2098 571.463 67.4494 575.676 67.4494H580.025C584.238 67.4494 586.741 65.2098 586.741 61.2579V52.952C586.741 51.3549 588.039 50.0601 589.635 50.0601H612.703C614.299 50.0601 615.592 51.3549 615.592 52.952V61.9165C615.592 79.3057 604.657 90.3721 586.741 90.3721H568.96Z" fill="#F0F0EC"></path></svg>