<svg xmlns="http://www.w3.org/2000/svg" id="Layer_1" height="512" viewBox="0 0 68 68" width="512"><g id="_x37_0"><path d="m65.1203308 13.5761127-5.5045128-1.8580322 3.3043213-3.2606201c.7148438-.7045903.9550781-1.7758794.6123047-2.7290044-.3994141-1.109375-1.0175781-2.1606445-2.8242188-2.3393555-.7373047-.0751953-1.4941406.215332-2.0371094.7709961l-2.661499 2.7277222c-.1594238-1.4257202-.3892822-2.8562012-.807251-4.6803589-.1209984-.5225827-.7315598-.7528321-1.1689453-.4418945-3.2589569 2.3374863-6.2571297 3.2898612-6.7431641 6.45752-.1386719-.168457-.2783203-.3295903-.4179688-.4794927-.2314453-.2470703-.5986328-.3071289-.8974609-.1513672-4.2509766 2.2377934-4.2509766 2.9492192-4.2509766 3.2529302 0 .874423 3.8430824 6.4857578 3.9406738 6.6452637-.0980759.1010075-4.1074066 4.2303448-3.8520508 3.9673462-10.0456562-7.739563-22.5577412-8.3384399-30.1699238-1.8757935.0853271-.0914917.1598511-.1931152.2470093-.2828369-.5407705.2980728-1.2591391.6051464-1.9822998 1.1901855-5.1079102 4.1327515-7.4178467 9.9696655-7.5314331 16.2171612-.118042 6.4943848 1.494812 12.9743042 5.7859497 17.8300781 4.4869995 5.0773926 9.0155029 8.680603 15.2322388 10.5090942 6.0222168 1.7711792 12.3792744 2.1672363 18.5385761-1.2988892 5.411377-3.0452271 10.6981201-9.2159424 11.2429199-15.5159912 2.0559807-7.7228737-1.0722694-16.3870392-6.583374-22.5556622 1.1937256-1.3425903 2.3796387-2.6838989 3.5736084-4.0265503 2.9292564 1.7551003 6.5082016 2.7605591 6.980957 2.7605591.2294922 0 .4511719-.105957.5947266-.2929688 2.7097054-3.5076141 2.8365669-3.6403332 2.7207031-4.0952148-.1049118-.4108963-.3952827-.4467316-.7373047-.7192383 1.1259766-.0625 2.2626953-.2036133 2.5517578-.3964844.7587891-.5058594 1.5742188-1.6552734 3.2324181-4.2104492.2681581-.4136656.0704576-.9639032-.3886717-1.1186522zm-37.2766094 22.2090436c-.1107121 1.4027672 2.500742 3.8348083 3.8935547 3.6170044.1954441.097496.396452.1249161.6262226.0266113.9624023.0784912 2.5891113-1.3894653 3.470459-1.631958.1264648-.1430054.2545166-.286377.3811035-.4294434 1.4853821 4.3697014-1.3483353 7.4985275-5.8548603 6.0897827-7.7102032-2.4116173-9.1775532-12.9892921-2.2398682-12.673521 1.0400391.0792236 2.1663818.4822388 3.3065186 1.1812134-3.3659554 3.3396473-3.5965805 3.2843303-3.5831299 3.8203106zm4.7954121-4.9975567c-5.1563473-3.2443676-9.7429523-.9228554-10.4165058 3.0783672-.7135086 4.2361641 2.616333 8.860424 6.6418457 10.6348267 6.3614521 2.8076782 11.2427387-2.0907097 8.4665546-8.3909302 1.4489746-1.6368408 2.9067383-3.2752686 4.3603516-4.913023 4.5201416 6.1032696 4.9681396 13.491209.9367676 18.0179424-4.8740234 5.4794922-14.6152363 4.8027344-21.7109394-1.5058594-7.0849609-6.3134766-8.8818359-15.9067364-4.0048828-21.3862286 4.5959473-5.1621704 13.1291504-5.0557861 20.0200214.1671753l-2.1430664 2.2097778zm29.4812011-24.5513311c.0718994.1987305.0830078.4088135.041748.6063843-.5664063.1444092-1.2246094-.029541-1.6179199-.4672241-.2670898-.2961426-.4567871-.6849976-.0734863-1.4916382.9796829-.0020156 1.34655.5084805 1.6496582 1.352478zm-18.7558593 4.7119146c.5009766-.3979492 1.6513672-1.1206055 2.7880859-1.7475586.5783958.7080841 1.1841202 1.5907745 1.7910156 2.2392578.6022987.6443453 1.6327209-.1101818 1.2021484-.878418-.7460938-1.3344727-.4335938-3.1108403.7285156-4.1323247 1.1319656-.9954686 2.530159-1.7617898 4.1015625-2.8032227.3574219 1.7439575.5307617 3.1454468.6641846 4.6655889l-7.8962402 8.0928345c-1.5455017-2.4040432-1.3108368-1.585103-3.3792724-5.4361572zm15.4404296-4.7739263c.2157326 1.0483384 1.0883751 1.8296771 2.1550293 2.1108403l-12.7155761 12.5478516c-22.2981834 23.1900654-14.6075134 15.191782-16.2712421 16.9220562-.4315681-.7915726-1.2199402-1.6128349-2.1477051-2.144043l6.024416-5.8507671c4.8192748-4.9517231 19.7555541-20.2984848 22.955078-23.585938zm-10.0361328 47.5463853c-7.3228645 9.0879173-21.7758713 7.4396591-31.336916-.2832031-11.7107868-9.4320298-12.9856767-23.1629334-6.9570312-30.5581036 6.607605-8.2160034 19.8139648-8.3129272 30.2840595-.335144l-2.7730713 2.859436c-7.5501728-5.8134155-17.0363789-5.8729858-22.194582-.0780029-5.4257813 6.0966797-3.5742188 16.6401348 4.1289063 23.5034161 4.1552734 3.6943359 9.1738281 5.5791016 13.76758 5.5791016 12.5235825 0 17.3972397-13.3373795 9.0134277-24.3490582.9641113-1.0855103 1.9249268-2.1705322 2.8901367-3.2562256 6.8191148 7.7219829 9.4075471 19.2220516 3.1774903 26.9177837zm12.7480469-36.1157208c-.5068359.112793-2.71875.3305664-3.7929688.2011719-.8231812-.0995064-1.1743851 1.026186-.4355469 1.4101563.4209785.2191696.9163284.771471 1.4003906 1.175293-.5368462.7385235-1.2657356 1.6826191-1.8369141 2.4223633-1.9580078-.5065308-3.9770508-1.3363647-5.6678467-2.3126221 7.0451584-7.9239559.8988953-1.0290108 7.2364502-7.6036377l5.3024902 1.7897949c-1.0703123 1.6274414-1.7470701 2.5644531-2.2060545 2.9174804z"></path><path d="m29.7082233 12.1430073c.6325245 0 .9905357-.7505102.5683594-1.2397461l-3.9316406-4.5595708c-.2714844-.3134766-.7451172-.3481445-1.0576172-.078125-.3144531.2705078-.3496094.7441406-.0791016 1.0576172 4.0393944 4.5382275 3.8778439 4.8198247 4.5 4.8198247z"></path><path d="m33.9748268 10.7997456c.4140625-.0180664.7353516-.3681641.7167969-.7822266l-.2548828-5.8432622c-.0185547-.4145508-.4091797-.7407227-.78125-.7167969-.4140625.0180664-.7353516.3681641-.7167969.7822266l.2548828 5.8432622c.0182305.4178457.3733177.7353391.78125.7167969z"></path><path d="m39.0217018 9.205019c.2978516 0 .5791016-.1782227.6962891-.4711914l1.59375-3.9838872c.1542969-.3842773-.0332031-.8208008-.4179688-.9746094-.3818359-.1538086-.8203125.0332031-.9746094.4179688l-1.59375 3.9829106c-.1978301.4933214.1678048 1.0288086.6962891 1.0288086z"></path></g></svg>